<?xml version="1.0" encoding="utf-8"?>
<!-- Generator: Adobe Illustrator 19.1.0, SVG Export Plug-In . SVG Version: 6.00 Build 0)  -->
<svg version="1.1" id="Ebene_1" xmlns="http://www.w3.org/2000/svg" xmlns:xlink="http://www.w3.org/1999/xlink" x="0px" y="0px"
	 viewBox="0 0 960 560" style="enable-background:new 0 0 960 560;" xml:space="preserve">
<style type="text/css">
	.st0{fill:#FFFFFF;stroke:#0099CC;stroke-width:2;stroke-miterlimit:10;}
	.st1{fill:#0099CC;}
</style>
<path class="st0" d="M494.7,186.3H276.6c-2.6,0-4.7-2.1-4.7-4.7v-49.2c0-2.6,2.1-4.7,4.7-4.7h218.2c2.6,0,4.7,2.1,4.7,4.7v49.2
	C499.4,184.2,497.3,186.3,494.7,186.3z"/>
<g>
	<path class="st1" d="M340.8,151.8v12.9h-3.7v-12.9h-3.5v-3.1h10.7v3.1H340.8z"/>
	<path class="st1" d="M359.9,150.6c1.5,1.5,2.5,3.6,2.5,6c0,2.1-0.8,4.3-2.5,6c-1.5,1.4-3.5,2.4-6.2,2.4c-3,0-5-1.2-6.2-2.4
		c-1.5-1.4-2.5-3.6-2.5-6c0-2.3,1-4.6,2.5-6.1c1.1-1.1,3.1-2.4,6.3-2.4C356.2,148.3,358.3,149.1,359.9,150.6z M350.2,153.1
		c-0.7,0.7-1.4,1.8-1.4,3.6c0,1.5,0.5,2.6,1.5,3.6c1,1,2.2,1.3,3.4,1.3c1.6,0,2.8-0.6,3.6-1.4c0.6-0.6,1.4-1.7,1.4-3.6
		c0-1.7-0.7-2.9-1.4-3.6c-0.8-0.8-2.1-1.4-3.5-1.4C352.3,151.7,351.1,152.2,350.2,153.1z"/>
	<path class="st1" d="M375.9,148.7c2.1,0,4.3,0.3,6.3,2.2c1.4,1.4,2.3,3.2,2.3,5.7c0,2.5-0.9,4.3-2.2,5.7c-2.2,2.2-5,2.4-6.3,2.4
		h-5.2v-16H375.9z M374.5,161.6h1c0.8,0,2.4-0.1,3.6-1.1c0.9-0.7,1.6-2.1,1.6-3.9c0-1.7-0.7-2.8-1.3-3.5c-1.2-1.2-2.8-1.4-3.9-1.4
		h-1V161.6z"/>
	<path class="st1" d="M401.4,150.6c1.5,1.5,2.5,3.6,2.5,6c0,2.1-0.8,4.3-2.5,6c-1.5,1.4-3.5,2.4-6.2,2.4c-3,0-5-1.2-6.2-2.4
		c-1.5-1.4-2.5-3.6-2.5-6c0-2.3,1-4.6,2.5-6.1c1.1-1.1,3.1-2.4,6.3-2.4C397.7,148.3,399.8,149.1,401.4,150.6z M391.7,153.1
		c-0.7,0.7-1.4,1.8-1.4,3.6c0,1.5,0.5,2.6,1.5,3.6c1,1,2.2,1.3,3.4,1.3c1.6,0,2.8-0.6,3.6-1.4c0.6-0.6,1.4-1.7,1.4-3.6
		c0-1.7-0.7-2.9-1.4-3.6c-0.8-0.8-2.1-1.4-3.5-1.4C393.8,151.7,392.6,152.2,391.7,153.1z"/>
	<path class="st1" d="M416,148.7v12.9h5v3.1h-8.7v-16H416z"/>
	<path class="st1" d="M426.8,148.7v16h-3.7v-16H426.8z"/>
	<path class="st1" d="M438.6,152.6c-1.2-1.1-2.2-1.2-2.7-1.2c-0.5,0-1.1,0.1-1.6,0.6c-0.2,0.2-0.4,0.6-0.4,1c0,0.4,0.1,0.7,0.4,0.9
		c0.4,0.4,0.9,0.5,2,0.9l1.2,0.5c0.7,0.3,1.6,0.6,2.2,1.2c0.9,0.9,1.2,2,1.2,3c0,1.7-0.6,3.1-1.4,4c-1.4,1.5-3.5,1.6-4.5,1.6
		c-1.2,0-2.2-0.2-3.2-0.7c-0.8-0.4-1.8-1.2-2.4-1.8l1.9-2.6c0.4,0.4,1.1,1,1.5,1.2c0.6,0.4,1.3,0.6,2,0.6c0.5,0,1.2-0.1,1.7-0.6
		c0.3-0.3,0.6-0.7,0.6-1.3c0-0.5-0.2-0.9-0.6-1.2c-0.4-0.4-1.4-0.7-1.9-0.9l-1.3-0.5c-0.7-0.3-1.6-0.6-2.2-1.3c-0.8-0.9-1-2-1-2.8
		c0-1.4,0.4-2.6,1.4-3.6c1.1-1.2,2.5-1.5,4-1.5c1.1,0,2.9,0.2,4.8,1.6L438.6,152.6z"/>
	<path class="st1" d="M449.2,151.8v12.9h-3.7v-12.9H442v-3.1h10.7v3.1H449.2z"/>
	<path class="st1" d="M463.6,151.8h-5.4v3.1h5.1v3.1h-5.1v3.6h5.4v3.1h-9v-16h9V151.8z"/>
</g>
<g>
	<path class="st1" d="M296.5,145.6c0-1,0-1.9,0-2.8c6.2,0,12.4,0,18.5,0c0,0.9,0,1.9,0,2.8C308.8,145.6,302.6,145.6,296.5,145.6z"/>
	<path class="st1" d="M296.5,157c0-1,0-1.9,0-2.8c6.2,0,12.4,0,18.5,0c0,0.9,0,1.9,0,2.8C308.8,157,302.6,157,296.5,157z"/>
	<path class="st1" d="M296.5,165.6c6.2,0,12.4,0,18.5,0c0,0.9,0,1.9,0,2.8c-6.2,0-12.4,0-18.5,0
		C296.5,167.5,296.5,166.5,296.5,165.6z"/>
	<path class="st1" d="M291.7,142.3c-2.2,2.2-4.4,4.4-6.7,6.7c-1.3-1.3-2.6-2.6-3.8-3.8c0.7-0.7,1.3-1.3,2-2c0.6,0.6,1.2,1.2,1.8,1.8
		c1.6-1.6,3.1-3.1,4.7-4.7C290.4,141,291,141.6,291.7,142.3z"/>
	<path class="st1" d="M285,160.4c-1.3-1.3-2.5-2.5-3.8-3.8c0.7-0.7,1.3-1.3,2-2c0.6,0.6,1.2,1.2,1.8,1.8c1.6-1.6,3.1-3.1,4.7-4.7
		c0.7,0.7,1.3,1.3,2,2C289.5,155.9,287.3,158.2,285,160.4z"/>
	<path class="st1" d="M289.7,163.1c0.7,0.7,1.3,1.3,2,2c-2.2,2.2-4.5,4.5-6.7,6.7c-1.3-1.3-2.5-2.5-3.8-3.8c0.7-0.7,1.3-1.3,2-2
		c0.6,0.6,1.2,1.2,1.8,1.8C286.6,166.2,288.2,164.7,289.7,163.1z"/>
</g>
</svg>
