<?xml version="1.0" encoding="utf-8"?>
<!-- Generator: Adobe Illustrator 19.1.0, SVG Export Plug-In . SVG Version: 6.00 Build 0)  -->
<svg version="1.1" id="Ebene_1" xmlns="http://www.w3.org/2000/svg" xmlns:xlink="http://www.w3.org/1999/xlink" x="0px" y="0px"
	 viewBox="0 0 960 560" style="enable-background:new 0 0 960 560;" xml:space="preserve">
<g>
	<path d="M413.9,457.5c-5.8,0.9-10.5,1.6-15.2,2.3c-1.8,0.3-4-0.1-5.4,0.7c-4.7,2.9-8.1,0.7-11.5-2.1c-7.5-6.3-15-12.6-22.5-18.9
		c19-21.3,23-45.8,20.5-71.8c-2.3-24-9.2-46.7-21.8-67.3c-8.6-14.1-20.1-24.8-38-28.3c2.6-8.5,4.9-16.8,7.6-24.9
		c4.6-13.3,4.7-13.3,18.8-13.3c10,0,20,0,30-0.1c0.3,0,0.6-0.1,1.6-0.4c-6.1-25.3-13.2-50.5-9.4-77.3c1.2,0.6,2.7,1.2,4.1,1.9
		c34.1,17.7,68.3,35.3,102.4,53.1c2.6,1.3,4.4,1.1,6.8-0.1c38.7-19.7,77.4-39.3,116.2-59c1.1-0.6,2.4-1,4.2-1.7
		c0,12-0.2,23.5,0.1,34.9c0.1,2.5,1.2,5.5,2.8,7.5c17.8,21.2,29.5,45.4,36.6,72c0.1,0.5,0,1,0,1.7c-22.1,3.8-34.4,19-42.9,37.9
		c-13.4,30-19.4,61.2-12,93.9c2.9,12.7,8.5,24.1,16.8,34.2c0.8,1,1.6,2.1,2.5,3.3c-8.3,9.8-17.7,18.2-28.5,25.1
		c-1,0.6-2.7,0.4-4,0.1c-3.6-0.6-7.1-1.5-10.6-2.2c-3.6-0.7-7.2-1.2-11.8-1.9c10.2-14.1,12.6-29,13-44.5
		c0.6-22.8-8.2-41.2-25.7-55.4c-30.4-24.6-78.1-25.6-109.5-2.4c-23.8,17.5-31.4,41.5-27.7,70C403,435.9,406,446.6,413.9,457.5z
		 M541.3,210.3c-28.7-0.1-51.9,22.7-52.2,51.5c-0.3,28.5,22.9,51.8,51.6,52.1c28.4,0.2,52-23.3,51.9-51.7
		C592.6,233.6,569.6,210.5,541.3,210.3z M373.5,261.4c-1,27.6,21.8,51.4,50.1,52.4c28.1,1,52.4-21.6,53.3-49.8
		c0.9-29.1-21.5-52.8-50.9-53.7C397.8,209.5,374.5,232.1,373.5,261.4z M497,308.4c-2.1-1.9-4-3.9-6.1-5.4c-8.4-6-17.2-4.2-22.6,4.5
		c-0.7,1.1-0.9,3.4-0.2,4.2c4.5,5.9,9.3,11.6,14.4,17.8C487.5,322.3,492.1,315.5,497,308.4z"/>
	<path d="M632.5,120.4c-6.7,4-12.6,7.8-18.8,11c-43.6,22.6-87.3,45-130.9,67.5c-3.1,1.6-5.5,1.7-8.7,0
		c-37.2-19.4-74.4-38.7-111.6-58c-1.6-0.8-3.2-1.5-5.4-2.5c0,13.7,0,26.8,0,40.2c-4.1,0-7.8,0-12.3,0c0-1.7,0-3.4,0-5.2
		c0-12.2-0.2-24.3,0.1-36.5c0.1-4-1-6.3-4.8-7.9c-5.4-2.3-10.5-5.3-16.8-8.6c5.2-2.4,9.1-4.2,13-5.9c46.1-20.8,92.2-41.6,138.4-62.2
		c2-0.9,5-1.1,6.9-0.2c49.3,22.1,98.6,44.4,147.8,66.7C630.1,119.2,630.8,119.6,632.5,120.4z"/>
	<path d="M591.4,370.3c0.8-21.7,5.6-43.8,15.5-64.7c4.5-9.6,10.6-18.1,19.3-24.4c19.3-13.8,43-5.7,49.7,17.1
		c3.8,13,2.6,26.1,0.1,39.1c-3.8,19.5-9.7,38.4-20.2,55.5c-8.8,14.4-19.9,26.3-35.9,32.7c-8.7,3.5-9.6,3.2-15-4.6
		C594.7,406,591.6,389.2,591.4,370.3z"/>
	<path d="M372.7,377.9c-0.2,18.1-3.3,33.9-12.7,48c-3,4.5-6.1,5.6-11.2,4c-13.7-4.3-24.6-12.5-33.4-23.5
		c-16.9-21.2-25.7-46.1-30.2-72.4c-1.5-9-1.6-18.7,0-27.7c4.4-25,29.5-35,49.7-19.7c7.2,5.5,13.4,13.1,18,20.9
		C365.8,329.6,371.8,353.9,372.7,377.9z"/>
	<path d="M546.2,506.4c-8.2,5.1-9.3,5.1-13.9-0.5c-9.1,4.8-12.5,3.5-16.2-5.9c-0.6-1.4-1.8-2.6-2.9-3.8c-3-3.5-6.9-6.5-9-10.5
		c-4.5-8.1-0.5-15.7,8.5-17.9c3.1-0.8,6.1-2.2,8.7-3.9c4.8-3.1,8.4-2.2,13.4,3.9c10.6-5,14.8-4.4,20.3,2.8c0.2,0,0.4,0.1,0.5,0.1
		c15.1-7.2,19.4,1.8,19.1,13.5c-0.3,10.7-4.9,19.3-15.1,24C553.3,511.2,551.3,510.9,546.2,506.4z"/>
	<path d="M432.6,506c-4.9,6.1-6.5,6.2-14.3,0.8c-4.1,5.9-9.2,4.1-14.4,1.6c-11.7-5.7-17.7-21.7-12.8-33.8c2.1-5.2,6.1-7,12.3-5.3
		c1.9,0.5,3.7,1.4,5.5,2.1c5.9-8.3,14.2-7.4,20.8-2.5c5-6.3,9.2-8.5,15.9-1.7c1.1,1.1,3.3,1.2,5.1,1.5c11,2.1,14.6,10.7,8.2,20
		c-1.3,1.9-2.9,3.7-4.6,5.2c-3.2,2.7-5.8,5.5-7.4,9.6C444.4,510.2,439.1,510.9,432.6,506z"/>
	<path d="M337,224.3c1-4.8,2-9.3,3-13.7c1.3-5.7,2.8-11.3,3.9-17c0.5-2.9,1.8-3.9,4.6-3.7c2.9,0.2,5.9,0,9.1,0
		c2.5,11.6,4.9,22.7,7.4,34.4C355.6,224.3,346.7,224.3,337,224.3z"/>
	<path d="M491.7,477c0.4,3.3,0.8,6.4,1.3,10.1c-6.7,0-13.5,0-20.4,0c0-3.3,0-6.6,0-10.1C479,477,485.3,477,491.7,477z"/>
	<path d="M465.6,423.8c-5-4.5-9.6-8.7-15-13.5c10.1,0,19.2,0,29.4,0C475.1,415.1,470.6,419.2,465.6,423.8z"/>
	<path d="M504.1,423.8c-5-4.5-9.6-8.7-15-13.5c10,0,19.1,0,29.4,0C513.4,415.1,508.9,419.3,504.1,423.8z"/>
	<path d="M498.9,386.3c-5.1,4.6-9.6,8.6-14.4,12.9c-4.8-4.1-9.5-8.2-14.9-12.9C479.7,386.3,488.8,386.3,498.9,386.3z"/>
	<path d="M524,399.3c-5.1-4.4-9.6-8.4-15-13c10.2,0,19.2,0,29.4,0C533.2,391,528.8,395,524,399.3z"/>
	<path d="M430.1,386.2c10.2,0,19.3,0,29.6,0c-5.3,4.7-9.7,8.7-14.5,13.1C440.3,395.1,435.7,391,430.1,386.2z"/>
	<path d="M499.4,434c-5.2,4.7-9.5,8.5-14.3,12.9c-4.7-4.1-9.3-8.1-14.8-12.9C480.4,434,489.3,434,499.4,434z"/>
	<path d="M512.8,261.8c0.1-6.5,5.4-11.8,11.9-11.6c6.5,0.1,11.5,5.5,11.5,12c-0.1,6.5-5.4,11.8-11.9,11.6
		C517.8,273.7,512.8,268.4,512.8,261.8z"/>
	<path d="M448.8,262.2c-0.1,6.3-5.7,11.8-12,11.7c-6.3-0.1-11.8-5.7-11.6-12c0.1-6.4,5.6-11.8,12-11.7
		C443.4,250.3,448.9,255.9,448.8,262.2z"/>
</g>
</svg>
