<?xml version="1.0" encoding="utf-8"?>
<!-- Generator: Adobe Illustrator 19.1.0, SVG Export Plug-In . SVG Version: 6.00 Build 0)  -->
<svg version="1.1" id="Ebene_1" xmlns="http://www.w3.org/2000/svg" xmlns:xlink="http://www.w3.org/1999/xlink" x="0px" y="0px"
	 viewBox="0 0 960 560" style="enable-background:new 0 0 960 560;" xml:space="preserve">
<style type="text/css">
	.st0{fill:#0099CC;}
</style>
<g>
	<path class="st0" d="M273,415c0-94,0.2-188.1-0.2-282.1c-0.1-15.5,4.9-26.2,19.6-31.6c3.7-0.1,7.3-0.3,11-0.3
		c94.5,0,188.9,0,283.4,0c17.5,0,27.9,10.3,28,27.9c0.1,32.5,0.1,65,0,97.5c0,3.2,0.8,4.9,3.9,6.4c8.5,4,16.4,9,24,14.5
		c2.7,2.4,5.5,4.8,8.2,7.2c7.4,7.6,14.1,15.9,20.2,24.7c3.8,7.6,7.5,15.3,11.3,22.9c-0.2,0.1-0.3,0.2-0.2,0.4
		c1.2,4.3,2.4,8.6,3.5,12.9c0.2,0.6,0.3,1.3,0.5,1.9c-0.1,1.7-0.1,3.4,0.8,5c1.5,13.9,1.8,27.8-0.9,41.7c-1.9,9.8-5.4,19.1-9.1,28.3
		c-1.9,3.3-3.7,6.7-5.6,10c-6.5,11.1-15.1,20.4-24.4,29.2c-1.8,0.8-3.2,2.1-4.4,3.6c-9.7,6.7-19.5,13.1-30.6,17.5
		c-27.8,10.9-55.9,11.9-84.4,3.4c-1.1-0.3-2.2-0.5-3.4-0.7c-1.6-1-3.2-1.8-5.2-1.9l-0.2-0.2c0,0-0.3,0.1-0.3,0.1
		c-0.5-0.2-1-0.4-1.5-0.6c-0.2-0.3-0.5-0.4-0.8-0.3c-0.4-0.2-0.8-0.5-1.2-0.7c-4.6-1.4-8.8-3.7-12.8-6.3c-0.4-0.3-0.9-0.5-1.3-0.8
		c-0.4-0.8-1-1.1-1.9-1.1c-1.7-1.5-3.3-3.4-5.2-4.3c-2.9-1.3-5.1-4.5-8.8-3.5c-2,0-4,0-6,0c-2-0.1-4-0.2-6-0.2
		c-53.5,0-106.9,0-160.4,0c-8.6,0-17.3,0.7-25.7-2c0,0,0,0,0,0c-0.3-0.3-0.7-0.6-1-1c-0.4-0.8-1.2-1-2-1.1c-1.3-1.9-3.2-3.4-5.1-4.7
		c-0.4-0.4-0.7-0.9-1.1-1.3c0-0.7-0.1-1.3-0.8-1.6c-0.1-0.3-0.3-0.5-0.7-0.6c-0.2-1.1-0.3-2.1-1.4-2.7c-0.1-0.4-0.2-0.8-0.4-1.2
		C274.4,417.5,274.1,416.1,273,415L273,415z M446.6,307.1c0.2-0.7,0.4-1.4,0.5-2c1.2-3.4,2.5-6.7,3.7-10.1c0.1-0.5,0.3-1,0.4-1.5
		c5.1-9.1,10-18.3,16.6-26.5c1.2-1.4,2.8-2.7,3.1-5.2c-4.2,0-8.2,0-12.1,0c-1.8,0-3.1,0-3.1-2.6c0.2-10.3,0.2-20.6,0.1-30.9
		c0-2,0.7-2.7,2.6-2.6c11.4,0.3,22.9-0.7,34.3,0.6l-0.1-0.1c-0.1,4.5-0.2,8.9-0.2,13.4c0,2.7,1.1,3.3,3.3,1.8
		c10.3-7.1,21.8-11.8,33.4-16.1l0,0.1c16.9-4.1,33.9-6.3,51.3-3.7c3.3,0.5,2.4-2,2.4-3.5c0.1-9.3-0.3-18.7,0.1-28
		c0.2-5-1-6.3-6.2-6.3c-88.1,0.2-176.3,0.1-264.4,0.1c-7.7,0-7.7,0-7.7,7.5c0,68,0.1,136-0.1,203.9c0,4.5,1.1,5.5,5.5,5.5
		c47.5-0.2,95-0.1,142.5-0.1c0.8,0,1.7,0,2.5,0c1.6-0.1,2.3-0.5,1.4-2.5c-3.3-7.1-6.4-14.2-9.5-21.3c-0.2-0.7-0.3-1.4-0.5-2
		c-3-12.1-5-24.4-4.7-37c0.3-10,2.4-19.7,4-29.5l0-0.1C446.2,307.9,446.4,307.5,446.6,307.1z M564.2,363.1
		c12.7,0.2,23.9-10.4,22.5-22c-0.4-3.4,0.7-5.2,2.7-7.2c10.2-10,20.4-20,30.7-30c4.7-4.6,9.7-9.1,14.1-14c3.5-3.8,3.2-9.1,0.2-12.3
		c-3.3-3.4-8.5-3.5-12.7-0.3c-0.9,0.7-1.8,1.5-2.6,2.3c-13.5,13.2-27,26.4-40.4,39.6c-2.1,2.1-3.9,3-6.9,1.5
		c-4.6-2.3-10.2-2.6-13.9,0.1c-7,5.2-11.8,2.6-16.8-2.4c-0.9-0.9-2.1-1.6-3.2-2.4c-11.1-8.5-22.2-17-33.4-25.3
		c-5.5-4.1-10.8-3.3-15.2,2.2c-2.6,3.2-1.3,7.8,3.6,11.7c9.3,7.3,18.8,14.6,28.2,21.7c6.3,4.8,12.7,9.5,19.1,14.2
		c1.7,1.2,2.6,2.5,3,4.7C545.2,355.7,553.8,362.9,564.2,363.1z M444,155.3C444,155.3,444,155.3,444,155.3c18,0,35.9-0.1,53.9,0
		c3.5,0,5.1-0.6,4.9-4.6c-0.4-7-0.4-14,0-21c0.2-3.5-1.2-4.1-4.2-4.1c-36.6,0.1-73.2,0.1-109.8,0c-2.7,0-3.9,0.6-3.9,3.6
		c0.2,7.5,0.2,15,0,22.5c-0.1,3.4,1.4,3.7,4.2,3.7C407.4,155.3,425.7,155.3,444,155.3z M576.1,242.7c-0.1-6.1-5.1-10.9-11.3-10.8
		c-6.4,0.2-10.9,4.7-10.9,11.1c0,6,5,10.8,11.3,10.8C571.4,253.8,576.2,248.9,576.1,242.7z M665,330c-6.5,0-10.9,4.3-10.9,10.7
		c-0.1,6.5,5,11.4,11.6,11.3c5.4-0.1,10.8-5.9,10.7-11.4C676.3,334.4,671.5,330,665,330z M576.1,439.2c0.1-6.1-4.7-11-10.9-11.2
		c-6.2-0.2-11.2,4.6-11.4,10.6c-0.2,6.3,4.8,11.4,11.1,11.3C571.4,450,576,445.5,576.1,439.2z M464,352c5.7-0.1,11.8-5.5,11.9-10.5
		c0.1-5.6-5.9-11.3-11.9-11.4c-5.5-0.1-11.1,5.7-11,11.5C453.1,346.8,458.6,352.1,464,352z"/>
	<path class="st0" d="M394.2,225.9c0,0,0.1-0.2,0.1-0.2c11-0.1,21.9,0,32.9-0.2c3.1-0.1,4,0.8,3.9,3.9c-0.2,9.5-0.2,18.9,0,28.4
		c0.1,3.1-0.9,4-3.9,3.9c-9.5-0.2-18.9-0.3-28.4,0c-4,0.1-4.7-1.4-4.6-5C394.4,246.5,394.2,236.2,394.2,225.9z"/>
	<path class="st0" d="M431.2,343c-0.1,10.7-0.2,21.3-0.2,32c0,0,0,0,0,0c-12,0.1-24,0.1-36,0.2l-0.3-0.2c0,0-0.4,0-0.4,0
		c0-10.6,0-21.2-0.2-31.9c0-2.9,0.7-4.1,3.9-4c10.9,0.2,21.9,0.2,32.8,0.2C431,340.5,431.1,341.7,431.2,343z"/>
	<path class="st0" d="M430.6,318.6c-10.8-0.1-21.6-0.2-32.4-0.1c-3,0-4.1-0.7-4.1-3.8c0.2-9.5,0.1-18.9,0-28.4c0-3,1-4,4.1-4
		c9.6,0.2,19.3,0.1,28.9,0.1c2,0,4-0.4,3.9,2.8C430.7,296.3,431.5,307.5,430.6,318.6C430.6,318.6,430.6,318.6,430.6,318.6z"/>
	<path class="st0" d="M350.8,318.4c-4.8,0-9.7-0.1-14.5,0c-2.4,0.1-3.6-0.4-3.6-3.2c0.2-9.8,0.2-19.6,0.1-29.4
		c0-2.6,0.8-3.5,3.4-3.4c10,0.1,20,0.1,29.9,0c2.3,0,3.4,0.4,3.4,2.9c-0.1,10-0.1,20,0,29.9c0,2.9-1.5,3.2-3.8,3.2
		C360.8,318.3,355.8,318.3,350.8,318.4C350.8,318.3,350.8,318.4,350.8,318.4z"/>
	<path class="st0" d="M351.1,375c-5,0-10-0.1-15,0c-2.6,0.1-3.5-0.7-3.4-3.4c0.1-9.6,0.1-19.3,0-28.9c0-2.6,0.6-3.8,3.7-3.7
		c9.8,0.2,19.6,0.2,29.4,0c2.8,0,3.8,1,3.8,3.8c-0.1,9.6-0.1,19.3,0,28.9c0,2.8-1.1,3.4-3.5,3.3C361.1,374.9,356.1,375,351.1,375z"
		/>
</g>
</svg>
