<?xml version="1.0" encoding="utf-8"?>
<!-- Generator: Adobe Illustrator 19.1.0, SVG Export Plug-In . SVG Version: 6.00 Build 0)  -->
<svg version="1.1" id="Ebene_1" xmlns="http://www.w3.org/2000/svg" xmlns:xlink="http://www.w3.org/1999/xlink" x="0px" y="0px"
	 viewBox="0 0 960 560" style="enable-background:new 0 0 960 560;" xml:space="preserve">
<style type="text/css">
	.st0{fill:#0099CC;}
</style>
<g>
	<path class="st0" d="M272.9,101.7c0-16.2,0-32.1,0-48.2c105,0,210,0,315.1,0c0,16,0,32,0,48.2C483.1,101.7,378.1,101.7,272.9,101.7
		z"/>
	<path class="st0" d="M272.9,295.8c0-16.2,0-32.1,0-48.2c105,0,210,0,315.1,0c0,16,0,32,0,48.2C483.1,295.8,378.1,295.8,272.9,295.8
		z"/>
	<path class="st0" d="M272.9,441.6c105,0,210,0,315.1,0c0,16,0,32.1,0,48.3c-105,0-210,0-315.1,0
		C272.9,473.9,272.9,457.9,272.9,441.6z"/>
	<path class="st0" d="M192.1,46.4C154.4,84.1,116.5,122,78.7,159.8c-21.6-21.6-43.4-43.4-65-64.9c11.1-11.1,22.5-22.5,33.9-33.9
		C57.7,71,68.1,81.4,78.4,91.7C105.2,65,131.7,38.5,158,12.2C169.6,23.8,180.9,35.1,192.1,46.4z"/>
	<path class="st0" d="M78.6,353.8c-21.5-21.5-43.3-43.3-64.9-64.9c11.1-11.1,22.5-22.5,33.9-33.9c10.1,10.1,20.4,20.5,30.7,30.8
		c26.7-26.7,53.2-53.2,79.5-79.5c11.6,11.6,22.9,22.9,34.1,34.1C154.4,278,116.5,316,78.6,353.8z"/>
	<path class="st0" d="M158.3,400.3c11.5,11.5,22.8,22.8,34,33.9C154.4,472,116.4,510,78.6,547.8c-21.5-21.5-43.2-43.2-64.8-64.7
		c11.1-11.1,22.4-22.4,33.8-33.8c10,10,20.3,20.4,30.7,30.9C105.3,453.3,131.8,426.7,158.3,400.3z"/>
</g>
</svg>
